<?xml version="1.0" encoding="iso-8859-1"?>
<!-- Generator: Adobe Illustrator 19.0.0, SVG Export Plug-In . SVG Version: 6.00 Build 0)  -->
<svg version="1.1" id="Layer_1" xmlns="http://www.w3.org/2000/svg" xmlns:xlink="http://www.w3.org/1999/xlink" x="0px" y="0px"
	 viewBox="0 0 512 512" style="enable-background:new 0 0 512 512;" xml:space="preserve">
<polygon style="fill:#AFB6BB;" points="477.691,192.66 477.691,382.68 451.299,382.68 60.701,382.68 34.309,382.68 34.309,192.66 
	60.701,192.66 451.299,192.66 "/>
<polygon style="fill:#0186AF;" points="450.982,81.814 345.732,81.814 345.732,7.918 "/>
<g>
	<rect x="60.701" y="382.68" style="fill:#00ABD5;" width="390.598" height="121.402"/>
	<polygon style="fill:#00ABD5;" points="451.299,82.026 451.299,192.66 60.701,192.66 60.701,7.918 345.732,7.918 345.732,81.814 
		450.982,81.814 	"/>
</g>
<g>
	<rect x="60.701" y="382.68" style="fill:#00A2D4;" width="195.299" height="121.402"/>
	<rect x="60.701" y="7.918" style="fill:#00A2D4;" width="195.299" height="184.742"/>
</g>
<polygon style="fill:#A0A7AB;" points="477.691,192.66 451.299,192.66 60.701,192.66 34.309,192.66 34.309,292.948 477.691,292.948 
	"/>
<g>
	<rect x="113.485" y="432.825" style="fill:#FFFFFF;" width="285.031" height="15.835"/>
	<rect x="435.464" y="216.412" style="fill:#FFFFFF;" width="21.113" height="15.835"/>
	<rect x="435.464" y="343.093" style="fill:#FFFFFF;" width="21.113" height="15.835"/>
	<rect x="55.423" y="343.093" style="fill:#FFFFFF;" width="21.113" height="15.835"/>
	<rect x="55.423" y="216.412" style="fill:#FFFFFF;" width="21.113" height="15.835"/>
</g>
<path d="M485.608,184.742h-26.392V77.791L348.234,0H52.784v184.742H26.392v205.856h26.392V512h406.433V390.598h26.392V184.742z
	 M353.65,23.151l72.277,50.746H353.65V23.151z M68.619,15.835h269.196v73.897h105.567v95.01H68.619V15.835z M443.381,496.165H68.619
	V390.598h374.763V496.165z M469.773,374.763H42.227V200.577h427.546V374.763z"/>
<path d="M366.845,332.536h-21.113c-10.186,0-18.474-8.288-18.474-18.474h-15.835c0,18.919,15.392,34.309,34.309,34.309h21.113
	c18.918,0,34.309-15.391,34.309-34.309c0-18.919-15.392-34.309-34.309-34.309h-21.113c-10.186,0-18.474-8.288-18.474-18.474
	s8.288-18.474,18.474-18.474h21.113c10.186,0,18.474,8.288,18.474,18.474h15.835c0-18.919-15.392-34.309-34.309-34.309h-21.113
	c-18.918,0-34.309,15.391-34.309,34.309c0,18.919,15.392,34.309,34.309,34.309h21.113c10.186,0,18.474,8.288,18.474,18.474
	C385.32,324.248,377.032,332.536,366.845,332.536z"/>
<path d="M261.278,332.536h-21.113c-10.186,0-18.474-8.288-18.474-18.474h-15.835c0,18.919,15.392,34.309,34.309,34.309h21.113
	c18.918,0,34.309-15.391,34.309-34.309c0-18.919-15.392-34.309-34.309-34.309h-21.113c-10.186,0-18.474-8.288-18.474-18.474
	s8.288-18.474,18.474-18.474h21.113c10.186,0,18.474,8.288,18.474,18.474h15.835c0-18.919-15.392-34.309-34.309-34.309h-21.113
	c-18.918,0-34.309,15.391-34.309,34.309c0,18.919,15.392,34.309,34.309,34.309h21.113c10.186,0,18.474,8.288,18.474,18.474
	C279.753,324.248,271.465,332.536,261.278,332.536z"/>
<path d="M142.515,353.65c26.194,0,47.505-21.31,47.505-47.505h-15.835c0,17.463-14.207,31.67-31.67,31.67s-31.67-14.207-31.67-31.67
	v-31.67c0-17.463,14.207-31.67,31.67-31.67s31.67,14.207,31.67,31.67h15.835c0-26.195-21.311-47.505-47.505-47.505
	s-47.505,21.31-47.505,47.505v31.67C95.01,332.34,116.321,353.65,142.515,353.65z"/>
<g>
	<polygon style="fill:#FFFFFF;" points="126.361,145.476 86.453,105.567 126.361,65.658 137.557,76.857 108.846,105.567 
		137.557,134.277 	"/>
	<rect x="145.155" y="100.289" style="fill:#FFFFFF;" width="17.155" height="15.835"/>
	<rect x="170.881" y="100.289" style="fill:#FFFFFF;" width="17.155" height="15.835"/>
	<rect x="196.619" y="100.289" style="fill:#FFFFFF;" width="17.155" height="15.835"/>
	<polygon style="fill:#FFFFFF;" points="231.908,145.476 220.711,134.277 249.422,105.567 220.711,76.857 231.908,65.658 
		271.815,105.567 	"/>
</g>
<g>
</g>
<g>
</g>
<g>
</g>
<g>
</g>
<g>
</g>
<g>
</g>
<g>
</g>
<g>
</g>
<g>
</g>
<g>
</g>
<g>
</g>
<g>
</g>
<g>
</g>
<g>
</g>
<g>
</g>
</svg>
